<svg id="Layer_1" data-name="Layer 1" xmlns="http://www.w3.org/2000/svg" xmlns:xlink="http://www.w3.org/1999/xlink" viewBox="0 0 660.74 426.52"><defs><style>.cls-1{fill:none;}.cls-2{fill:url(#linear-gradient);}.cls-3{fill:url(#linear-gradient-2);}.cls-4{fill:url(#linear-gradient-3);}.cls-5{fill:url(#linear-gradient-4);}.cls-6{fill:url(#linear-gradient-5);}.cls-7{fill:url(#radial-gradient);}.cls-8{opacity:0.29;}.cls-9{clip-path:url(#clip-path);}.cls-10{fill:url(#linear-gradient-6);}.cls-11{fill:url(#linear-gradient-7);}.cls-12{fill:#fff;}.cls-13{fill:url(#linear-gradient-8);}.cls-14{fill:url(#linear-gradient-9);}</style><linearGradient id="linear-gradient" x1="598.98" y1="539.59" x2="648.81" y2="539.59" gradientUnits="userSpaceOnUse"><stop offset="0" stop-color="#ceffe5"/><stop offset="0.52" stop-color="#d0ffe6"/><stop offset="0.71" stop-color="#d7ffea"/><stop offset="0.84" stop-color="#e2fff0"/><stop offset="0.95" stop-color="#f3fff9"/><stop offset="1" stop-color="#fff"/></linearGradient><linearGradient id="linear-gradient-2" x1="657.5" y1="540" x2="712.67" y2="540" xlink:href="#linear-gradient"/><linearGradient id="linear-gradient-3" x1="723.33" y1="539.59" x2="805.15" y2="539.59" xlink:href="#linear-gradient"/><linearGradient id="linear-gradient-4" x1="812.68" y1="539.59" x2="870.16" y2="539.59" xlink:href="#linear-gradient"/><linearGradient id="linear-gradient-5" x1="87.16" y1="148.55" x2="362.64" y2="148.55" gradientUnits="userSpaceOnUse"><stop offset="0" stop-color="#01893f"/><stop offset="1" stop-color="#18e675"/></linearGradient><radialGradient id="radial-gradient" cx="379.53" cy="539.93" r="145.31" gradientUnits="userSpaceOnUse"><stop offset="0" stop-color="#01d43f"/><stop offset="0.26" stop-color="#05d747"/><stop offset="0.67" stop-color="#0ede5e"/><stop offset="1" stop-color="#18e675"/></radialGradient><clipPath id="clip-path" transform="translate(-209.42 -391.38)"><circle class="cls-1" cx="434.19" cy="540.07" r="137.74"/></clipPath><linearGradient id="linear-gradient-6" x1="279.23" y1="681.58" x2="554.7" y2="681.58" gradientUnits="userSpaceOnUse"><stop offset="0" stop-color="#01893f"/><stop offset="1" stop-color="#fff" stop-opacity="0.5"/></linearGradient><linearGradient id="linear-gradient-7" x1="388.01" y1="527.69" x2="663.49" y2="527.69" xlink:href="#linear-gradient-6"/><linearGradient id="linear-gradient-8" x1="-239.01" y1="-655" x2="-167.01" y2="-655" gradientTransform="translate(-312.89 622.59) rotate(52.83)" xlink:href="#linear-gradient-5"/><linearGradient id="linear-gradient-9" x1="-277.51" y1="-616.5" x2="-249.74" y2="-616.5" gradientTransform="translate(-312.89 622.59) rotate(52.83)" xlink:href="#linear-gradient-5"/></defs><path class="cls-2" d="M618.8,514.79v16.46h26.54v15.3H618.8v17.84h30v15.88H599V498.92h49.83v15.87Z" transform="translate(-209.42 -391.38)"/><path class="cls-3" d="M712.67,498.92v55.39q0,12.87-7.25,19.82t-19.52,7q-12.87,0-20.63-7.3T657.5,553h19.71q0,5.1,2.08,7.7a7.26,7.26,0,0,0,6,2.61,6.88,6.88,0,0,0,5.56-2.32q2-2.31,2-6.72V498.92Z" transform="translate(-209.42 -391.38)"/><path class="cls-4" d="M779.3,565.9H748.94l-4.87,14.37H723.33l29.43-81.35h23l29.44,81.35h-21Zm-5.1-15.3-10.08-29.78-10,29.78Z" transform="translate(-209.42 -391.38)"/><path class="cls-5" d="M835.16,564.05h35v16.22H812.68V565.21l34.77-50.07H812.68V498.92h57.48V514Z" transform="translate(-209.42 -391.38)"/><circle class="cls-6" cx="224.9" cy="148.55" r="137.74"/><path class="cls-7" d="M549.62,541.64c-.91,62.57-52.32,113.38-114.9,113.59a115.33,115.33,0,0,1-109.45-77.79,23.15,23.15,0,0,0-21.9-15.6h-.57a23.6,23.6,0,0,0-17.33,7.79,43.83,43.83,0,1,1-.3-59.73,23.62,23.62,0,0,0,17.15,7.59h1.23a23.22,23.22,0,0,0,21.9-15.62,115.33,115.33,0,0,1,224.17,39.77Z" transform="translate(-209.42 -391.38)"/><g class="cls-8"><g class="cls-9"><path class="cls-10" d="M554.7,680.16A137.74,137.74,0,1,1,389,545.27,137.89,137.89,0,0,0,553.76,664,139,139,0,0,1,554.7,680.16Z" transform="translate(-209.42 -391.38)"/><path class="cls-11" d="M663.49,529.12A137.79,137.79,0,0,1,553.76,664,137.89,137.89,0,0,0,389,545.27a137.74,137.74,0,1,1,274.54-16.15Z" transform="translate(-209.42 -391.38)"/></g></g><path class="cls-12" d="M422,510.67v23.6h37.67v21.94H422v25.6h42.6v22.78H393.88V487.89h70.73v22.78Z" transform="translate(-209.42 -391.38)"/><circle class="cls-13" cx="86.38" cy="65.07" r="36"/><circle class="cls-14" cx="19.08" cy="40.03" r="13.88"/><path class="cls-12" d="M607.55,587v2.75h-5.72v3h4.28v2.66h-4.28V601h-3.42V587Z" transform="translate(-209.42 -391.38)"/><path class="cls-12" d="M618,590.25a3.91,3.91,0,0,1,2-.53v3.62H619a2.93,2.93,0,0,0-1.92.55,2.5,2.5,0,0,0-.64,1.94V601H613V589.84h3.42v1.87A4.54,4.54,0,0,1,618,590.25Z" transform="translate(-209.42 -391.38)"/><path class="cls-12" d="M627.4,600.46a5.08,5.08,0,0,1-2.06-2,6,6,0,0,1-.75-3,6,6,0,0,1,.76-3,5.22,5.22,0,0,1,2.08-2,6.61,6.61,0,0,1,5.92,0,5.16,5.16,0,0,1,2.08,2,5.93,5.93,0,0,1,.76,3,5.85,5.85,0,0,1-.77,3,5.12,5.12,0,0,1-2.1,2,6.53,6.53,0,0,1-5.92,0Zm4.62-3a2.89,2.89,0,0,0,.69-2.07,2.86,2.86,0,0,0-.67-2,2.14,2.14,0,0,0-1.65-.73,2.19,2.19,0,0,0-1.66.71,3,3,0,0,0-.66,2.07,3,3,0,0,0,.65,2.07,2.15,2.15,0,0,0,1.63.72A2.27,2.27,0,0,0,632,597.49Z" transform="translate(-209.42 -391.38)"/><path class="cls-12" d="M651.62,591a4.93,4.93,0,0,1,1.17,3.49V601h-3.4v-6a2.42,2.42,0,0,0-.58-1.74,2.25,2.25,0,0,0-3.12,0,2.47,2.47,0,0,0-.58,1.74v6h-3.42V589.84h3.42v1.49a3.5,3.5,0,0,1,1.4-1.17,4.43,4.43,0,0,1,2-.44A4,4,0,0,1,651.62,591Z" transform="translate(-209.42 -391.38)"/><path class="cls-12" d="M665.07,598.1V601h-1.74a4.24,4.24,0,0,1-2.9-.91,3.75,3.75,0,0,1-1-3v-4.44H658v-2.84h1.36v-2.72h3.42v2.72h2.24v2.84h-2.24v4.49a.91.91,0,0,0,.24.71,1.16,1.16,0,0,0,.8.22Z" transform="translate(-209.42 -391.38)"/><path class="cls-12" d="M682,589.71v2.83h4.58v2.64H682v3.08h5.18V601h-8.6V587h8.6v2.75Z" transform="translate(-209.42 -391.38)"/><path class="cls-12" d="M703,591a4.93,4.93,0,0,1,1.17,3.49V601h-3.4v-6a2.42,2.42,0,0,0-.58-1.74,2.25,2.25,0,0,0-3.12,0,2.47,2.47,0,0,0-.58,1.74v6h-3.42V589.84h3.42v1.49a3.5,3.5,0,0,1,1.4-1.17,4.43,4.43,0,0,1,2-.44A4,4,0,0,1,703,591Z" transform="translate(-209.42 -391.38)"/><path class="cls-12" d="M710.2,592.38a5,5,0,0,1,1.77-2,4.69,4.69,0,0,1,2.5-.7,4.44,4.44,0,0,1,2,.46,3.7,3.7,0,0,1,1.43,1.24v-5.17h3.42V601h-3.42v-1.59a3.37,3.37,0,0,1-1.37,1.27,4.28,4.28,0,0,1-2.07.49,4.61,4.61,0,0,1-2.5-.71,5,5,0,0,1-1.77-2,7.36,7.36,0,0,1,0-6Zm7,1a2.28,2.28,0,0,0-1.73-.74,2.33,2.33,0,0,0-1.73.72,2.79,2.79,0,0,0-.71,2,2.83,2.83,0,0,0,.71,2,2.39,2.39,0,0,0,3.46,0,2.79,2.79,0,0,0,.71-2A2.74,2.74,0,0,0,717.2,593.41Z" transform="translate(-209.42 -391.38)"/><path class="cls-12" d="M744.55,587.84a6.31,6.31,0,0,1,2.57,2.47A7.28,7.28,0,0,1,748,594a7.19,7.19,0,0,1-.91,3.65,6.23,6.23,0,0,1-2.58,2.48,8.12,8.12,0,0,1-3.87.88h-5.26V587h5.26A8.26,8.26,0,0,1,744.55,587.84ZM743.47,597a4,4,0,0,0,1.08-3,3.75,3.75,0,0,0-4.1-4.11h-1.62V598h1.62A4.16,4.16,0,0,0,743.47,597Z" transform="translate(-209.42 -391.38)"/><path class="cls-12" d="M764.09,596.25h-7.74a2.29,2.29,0,0,0,.67,1.58,2,2,0,0,0,1.45.55,1.8,1.8,0,0,0,1.78-1.08h3.64a5,5,0,0,1-1,2,5.27,5.27,0,0,1-1.83,1.38,6.33,6.33,0,0,1-5.38-.21,4.94,4.94,0,0,1-2-2,6.16,6.16,0,0,1-.72-3,6.29,6.29,0,0,1,.71-3,5,5,0,0,1,2-2,6.08,6.08,0,0,1,2.94-.7,5.9,5.9,0,0,1,2.88.69,4.82,4.82,0,0,1,2,1.93,5.94,5.94,0,0,1,.71,3A8.91,8.91,0,0,1,764.09,596.25Zm-3.44-1.91a1.74,1.74,0,0,0-.6-1.39,2.37,2.37,0,0,0-2.95,0,2.25,2.25,0,0,0-.73,1.42Z" transform="translate(-209.42 -391.38)"/><path class="cls-12" d="M774.65,597.8l2.42-8h3.64l-4,11.16h-4.22l-4-11.16h3.66Z" transform="translate(-209.42 -391.38)"/><path class="cls-12" d="M796.29,596.25h-7.74a2.29,2.29,0,0,0,.67,1.58,2,2,0,0,0,1.45.55,1.8,1.8,0,0,0,1.78-1.08h3.64a5,5,0,0,1-1,2,5.27,5.27,0,0,1-1.83,1.38,6.33,6.33,0,0,1-5.38-.21,4.94,4.94,0,0,1-2-2,6.16,6.16,0,0,1-.72-3,6.29,6.29,0,0,1,.71-3,5,5,0,0,1,2-2,6.08,6.08,0,0,1,2.94-.7,5.9,5.9,0,0,1,2.88.69,4.82,4.82,0,0,1,2,1.93,5.94,5.94,0,0,1,.71,3A8.91,8.91,0,0,1,796.29,596.25Zm-3.44-1.91a1.74,1.74,0,0,0-.6-1.39,2.37,2.37,0,0,0-3,0,2.25,2.25,0,0,0-.73,1.42Z" transform="translate(-209.42 -391.38)"/><path class="cls-12" d="M805.25,586.21V601h-3.42V586.21Z" transform="translate(-209.42 -391.38)"/><path class="cls-12" d="M813.54,600.46a5.08,5.08,0,0,1-2.06-2,6.48,6.48,0,0,1,0-6.07,5.22,5.22,0,0,1,2.08-2,6.61,6.61,0,0,1,5.92,0,5.22,5.22,0,0,1,2.08,2,6.4,6.4,0,0,1,0,6.07,5.12,5.12,0,0,1-2.1,2,6.26,6.26,0,0,1-3,.71A6.13,6.13,0,0,1,813.54,600.46Zm4.62-3a2.89,2.89,0,0,0,.69-2.07,2.86,2.86,0,0,0-.67-2,2.15,2.15,0,0,0-1.65-.73,2.18,2.18,0,0,0-1.66.71,3,3,0,0,0-.66,2.07,3,3,0,0,0,.65,2.07,2.14,2.14,0,0,0,1.63.72A2.27,2.27,0,0,0,818.16,597.49Z" transform="translate(-209.42 -391.38)"/><path class="cls-12" d="M832.63,590.17a4.13,4.13,0,0,1,2.06-.49,4.69,4.69,0,0,1,2.5.7,4.86,4.86,0,0,1,1.77,2,7.36,7.36,0,0,1,0,6,4.89,4.89,0,0,1-1.77,2,4.61,4.61,0,0,1-2.5.71,4.26,4.26,0,0,1-2.05-.49,3.71,3.71,0,0,1-1.39-1.23v6.88h-3.42V589.84h3.42v1.58A3.72,3.72,0,0,1,832.63,590.17Zm2.79,3.22a2.36,2.36,0,0,0-1.75-.72,2.28,2.28,0,0,0-1.73.74,2.79,2.79,0,0,0-.71,2,2.84,2.84,0,0,0,.71,2,2.4,2.4,0,0,0,3.47,0,3.21,3.21,0,0,0,0-4Z" transform="translate(-209.42 -391.38)"/><path class="cls-12" d="M855.55,596.25h-7.74a2.29,2.29,0,0,0,.67,1.58,2,2,0,0,0,1.45.55,1.8,1.8,0,0,0,1.78-1.08h3.64a5,5,0,0,1-1,2,5.27,5.27,0,0,1-1.83,1.38,6.33,6.33,0,0,1-5.38-.21,4.94,4.94,0,0,1-2-2,6.16,6.16,0,0,1-.72-3,6.29,6.29,0,0,1,.71-3,5,5,0,0,1,2-2,6.08,6.08,0,0,1,2.94-.7,5.9,5.9,0,0,1,2.88.69,4.82,4.82,0,0,1,2,1.93,5.94,5.94,0,0,1,.71,3A8.91,8.91,0,0,1,855.55,596.25Zm-3.44-1.91a1.74,1.74,0,0,0-.6-1.39,2.37,2.37,0,0,0-3,0,2.25,2.25,0,0,0-.73,1.42Z" transform="translate(-209.42 -391.38)"/><path class="cls-12" d="M866,590.25a3.91,3.91,0,0,1,2-.53v3.62h-.94a2.93,2.93,0,0,0-1.92.55,2.46,2.46,0,0,0-.64,1.94V601h-3.42V589.84h3.42v1.87A4.54,4.54,0,0,1,866,590.25Z" transform="translate(-209.42 -391.38)"/></svg>